<svg xmlns="http://www.w3.org/2000/svg" width="23" height="21" viewBox="0 0 23 21"><g><g><path fill="#fff" d="M0 .856C0 .386.383 0 .85 0h3.078c.383 0 .723.256.823.628l3.474 12.64h9.473l3.149-7.276H10.352a.856.856 0 0 1 0-1.712h11.8c.283 0 .552.143.708.385a.87.87 0 0 1 .071.813l-3.885 8.988a.853.853 0 0 1-.78.514H7.587a.852.852 0 0 1-.823-.628L3.29 1.712H.85A.856.856 0 0 1 0 .856zM4.85 19.06c0-1.07.865-1.94 1.929-1.94 1.063 0 1.928.87 1.928 1.94 0 1.07-.865 1.94-1.928 1.94a1.937 1.937 0 0 1-1.929-1.94zm12.068.128c-.07-1.056.724-1.997 1.787-2.069a1.937 1.937 0 0 1 2.057 1.798c.028.528-.128 1.027-.469 1.413-.34.4-.808.627-1.318.67h-.142c-1.007 0-1.844-.799-1.915-1.812z"/></g></g></svg>