<svg xmlns="http://www.w3.org/2000/svg" width="24" height="24" viewBox="0 0 24 24"><g><g><path fill="#b6907e" d="M21.778 17.654c.513.506.782 1.11.782 1.738 0 .624-.264 1.232-.767 1.754-.218.228-.441.446-.66.654-.32.31-.624.598-.888.918-.005.01-.015.015-.02.025-.772.836-1.757 1.257-2.93 1.257-.101 0-.213-.005-.32-.01-1.74-.111-3.3-.766-4.467-1.318-3.056-1.475-5.731-3.569-7.954-6.22C2.72 14.253 1.492 12.2.67 9.985.335 9.082-.1 7.704.02 6.224a3.706 3.706 0 0 1 1.102-2.358l1.726-1.739.01-.01c.508-.486 1.107-.745 1.726-.745.62 0 1.208.259 1.7.745.33.304.65.629.955.943.152.162.315.325.472.482l1.386 1.383c1.066 1.065 1.066 2.444 0 3.508-.142.142-.284.29-.426.431-.376.38-.762.776-1.178 1.156.31.684.736 1.358 1.37 2.16 1.31 1.606 2.676 2.848 4.178 3.801.148.091.32.177.503.269.127.065.259.131.39.203l1.605-1.597c.513-.512 1.112-.781 1.736-.781.63 0 1.224.274 1.716.786zm-.975.958l-2.797-2.793-.01-.01c-.157-.173-.416-.37-.731-.37-.32 0-.594.207-.767.38l-1.736 1.733c-.086.086-.35.35-.771.35-.168 0-.33-.04-.503-.127-.02-.01-.04-.025-.06-.035a6.45 6.45 0 0 0-.503-.269c-.203-.101-.417-.208-.625-.34-1.63-1.028-3.107-2.372-4.508-4.095l-.005-.005c-.771-.979-1.279-1.8-1.64-2.671-.004-.016-.01-.031-.015-.046-.091-.289-.172-.715.264-1.15.005-.01.016-.016.026-.026.441-.395.847-.801 1.274-1.237.147-.142.29-.289.437-.436.538-.537.538-1.034 0-1.571L6.747 4.51l-.483-.492c-.31-.32-.604-.618-.913-.907l-.016-.015c-.162-.162-.421-.355-.74-.355-.26 0-.524.127-.772.36L2.092 4.829c-.422.42-.65.913-.701 1.506-.076.927.096 1.91.569 3.173.766 2.068 1.924 3.994 3.655 6.078 2.096 2.499 4.62 4.47 7.492 5.86 1.051.5 2.452 1.09 3.96 1.186.076.004.157.004.234.004.791 0 1.396-.258 1.908-.805.315-.37.65-.7.98-1.014.218-.213.421-.406.62-.619-.006.005-.006 0 0 0 .517-.537.517-1.07-.006-1.586zM12.427 4.905a.688.688 0 0 1 .792-.557 7.832 7.832 0 0 1 4.239 2.195 7.815 7.815 0 0 1 2.198 4.232.685.685 0 0 1-.563.79.68.68 0 0 1-.792-.558 6.458 6.458 0 0 0-1.818-3.496 6.44 6.44 0 0 0-3.503-1.815.677.677 0 0 1-.553-.79zm11.021 6.453c-.04.005-.076.01-.117.01a.68.68 0 0 1-.675-.568 11.477 11.477 0 0 0-3.234-6.23 11.54 11.54 0 0 0-6.238-3.228.683.683 0 1 1 .223-1.348 12.888 12.888 0 0 1 6.98 3.614 12.856 12.856 0 0 1 3.62 6.97.672.672 0 0 1-.559.78z"/></g></g></svg>