<svg xmlns="http://www.w3.org/2000/svg" width="21" height="25" viewBox="0 0 21 25"><g><g><path fill="#fff" d="M6.806 11.892C4.84 9.645 5.166 5.793 5.202 5.426c.128-2.78 1.436-4.1 2.509-4.717C8.777.093 9.89 0 10.459 0h.087c1.032.022 1.957.27 2.748.73 1.063.617 2.35 1.937 2.478 4.697.036.367.363 4.219-1.604 6.466-.894 1.02-2.105 1.553-3.602 1.579h-.163c-1.497-.026-2.708-.56-3.597-1.58zm1.027-.927c.639.735 1.502 1.098 2.626 1.108H10.51c1.13-.01 1.987-.373 2.631-1.108 1.625-1.853 1.267-5.374 1.262-5.41-.005-.01-.005-.026-.005-.042-.159-3.51-2.503-4.079-3.883-4.11h-.061c-1.114 0-3.714.398-3.883 4.11 0 .01-.005.026-.005.042-.005.031-.352 3.567 1.267 5.41zM20.738 22.2a.69.69 0 0 1-.266.326C20.319 22.624 16.646 25 10.5 25 4.354 25 .68 22.629.528 22.525a.661.661 0 0 1-.266-.326c-.27-.693-.266-2.076-.26-2.345v-.016c.005-.04.005-.082.005-.129.03-1.02.097-3.417 2.314-4.188a.632.632 0 0 1 .051-.016c2.314-.595 4.22-1.941 4.24-1.957a.683.683 0 0 1 .96.171c.22.316.144.75-.168.974-.087.056-2.12 1.496-4.664 2.158-1.19.43-1.323 1.72-1.36 2.9 0 .046-.004.087-.004.13-.01.465.025 1.184.107 1.599.833.476 4.097 2.127 9.012 2.127 4.935 0 8.179-1.646 9.006-2.122.082-.414.113-1.134.108-1.6-.006-.041-.006-.083-.006-.13-.035-1.18-.168-2.469-1.358-2.899-2.544-.662-4.578-2.096-4.665-2.158a.704.704 0 0 1-.168-.974.683.683 0 0 1 .96-.17c.02.015 1.936 1.36 4.24 1.957l.052.015c2.217.766 2.283 3.163 2.314 4.188 0 .047.005.088.005.13v.015c.005.27.01 1.652-.245 2.34z"/></g></g></svg>